<?xml version="1.0" encoding="UTF-8" standalone="no"?>
<!-- Created with Inkscape (http://www.inkscape.org/) -->

<svg
   width="166.15546mm"
   height="35.382435mm"
   viewBox="0 0 166.15546 35.382435"
   version="1.1"
   id="svg1"
   xml:space="preserve"
   xmlns="http://www.w3.org/2000/svg"
   xmlns:svg="http://www.w3.org/2000/svg"><defs
     id="defs1" /><g
     id="layer1"
     transform="translate(-27.580591,-166.59056)"><g
       id="g1"><path
         style="fill:#c49b6f"
         d="m 28.638812,201.95554 c -0.758288,-0.0239 -0.804862,-0.0303 -0.896983,-0.12248 l -0.09717,-0.0973 -0.01161,-2.66254 c -0.01125,-2.57807 -0.009,-2.66577 0.07101,-2.76453 0.082,-0.10122 0.08894,-0.10199 0.918121,-0.10199 0.812379,0 0.838186,0.003 0.932753,0.0972 l 0.09726,0.0972 0.02287,1.9103 c 0.01258,1.05065 0.02699,1.91276 0.03204,1.91578 0.292961,0.17569 0.883678,0.17036 1.063634,-0.01 l 0.09879,-0.0988 v -1.83623 -1.83624 l 0.103065,-0.11985 0.103065,-0.11984 2.363638,-0.0129 c 2.486828,-0.0136 2.630455,-0.004 2.744127,0.17488 0.108145,0.17063 0.125594,0.4601 0.128851,2.13763 l 0.0032,1.65887 0.100838,0.0817 c 0.08125,0.0658 0.168374,0.0815 0.448491,0.0804 0.393151,-0.002 0.479048,-0.0429 0.541471,-0.26052 0.02324,-0.081 0.04111,-0.88039 0.04111,-1.8387 0,-1.01963 0.01692,-1.73985 0.04244,-1.80699 0.08808,-0.23167 0.132669,-0.23564 2.648507,-0.23564 2.485354,0 2.531948,0.004 2.655476,0.22063 0.04383,0.0769 0.06171,0.51326 0.07819,1.90811 l 0.02136,1.80839 0.119844,0.10304 c 0.164169,0.14115 0.641659,0.15015 0.813063,0.0153 0.177455,-0.13958 0.204692,-0.33938 0.190692,-1.39882 -0.027,-2.04307 -0.02046,-2.28612 0.06502,-2.41655 0.157024,-0.23957 0.163115,-0.24012 2.664898,-0.24005 2.101494,6e-5 2.309959,0.006 2.446719,0.0747 0.244595,0.12219 0.251187,0.17713 0.25387,2.11619 l 0.0024,1.74251 0.104843,0.10485 c 0.09485,0.0949 0.139409,0.10484 0.467466,0.10484 0.321761,0 0.376129,-0.0116 0.482468,-0.10309 l 0.119844,-0.1031 v -1.80833 c 0,-2.01594 -9.86e-4,-2.00843 0.273994,-2.08881 0.101057,-0.0296 0.948177,-0.0403 2.490761,-0.0317 l 2.337621,0.0131 0.118404,0.11838 0.118404,0.11839 0.02805,0.82131 c 0.01543,0.45172 0.02984,1.29594 0.03204,1.87605 0.0048,1.26268 -0.03196,1.18772 0.581959,1.18772 0.609613,0 0.553935,0.19609 0.553935,-1.95087 0,-2.03592 0.0015,-2.04695 0.282714,-2.14499 0.0929,-0.0324 0.86327,-0.0473 2.438087,-0.0473 2.525688,0 2.483743,-0.004 2.61766,0.25489 0.05475,0.10586 0.06479,0.39013 0.06479,1.83317 0,1.07828 0.01637,1.75092 0.04439,1.82464 0.06926,0.18217 0.163931,0.22767 0.476838,0.22915 0.581881,0.003 0.634161,-0.0994 0.645499,-1.26147 0.0043,-0.44483 -0.0017,-1.20346 -0.01347,-1.68586 -0.02433,-0.99924 -0.0072,-1.06748 0.287912,-1.14945 0.218994,-0.0608 4.587081,-0.0608 4.806074,0 0.31319,0.087 0.307911,0.0533 0.320311,2.04594 0.0075,1.21039 0.02632,1.80422 0.0591,1.86785 0.02643,0.0513 0.103323,0.11618 0.170869,0.14416 0.159243,0.066 0.635519,0.0656 0.7592,-6.2e-4 0.201463,-0.10782 0.212341,-0.21135 0.214548,-2.04178 0.0012,-1.03215 0.01902,-1.75661 0.04476,-1.82431 0.08838,-0.23245 0.131635,-0.23631 2.648761,-0.23631 2.429244,0 2.492774,0.005 2.648235,0.19223 0.05457,0.0659 0.06429,0.33431 0.06552,1.81126 0.0016,1.88733 0.0098,1.96 0.235987,2.07695 0.07079,0.0366 0.238818,0.0628 0.403089,0.0628 0.242137,0 0.296424,-0.0147 0.386542,-0.10484 0.05766,-0.0577 0.1049,-0.14897 0.104971,-0.20289 7.1e-5,-0.0539 0.0062,-0.86972 0.01356,-1.81287 0.01208,-1.54141 0.02093,-1.72626 0.08753,-1.82791 0.04075,-0.0622 0.122396,-0.13145 0.181427,-0.15389 0.151209,-0.0575 4.645898,-0.0535 4.854047,0.004 0.312344,0.0867 0.30667,0.051 0.330626,2.0817 l 0.02136,1.81038 0.119844,0.10303 c 0.103248,0.0888 0.163493,0.10303 0.435033,0.10303 0.173354,0 0.362608,-0.018 0.420566,-0.0401 0.193376,-0.0735 0.206086,-0.20951 0.191425,-2.04823 -0.01336,-1.67621 -0.01203,-1.70835 0.07594,-1.82717 0.170872,-0.2308 0.120809,-0.22644 2.601404,-0.22704 2.111121,-5.2e-4 2.319193,0.006 2.456025,0.0741 0.243948,0.12186 0.251185,0.18086 0.25387,2.06952 0.0016,1.14696 0.01776,1.72954 0.04983,1.79994 0.06592,0.14468 0.210135,0.19893 0.528836,0.19893 0.227211,0 0.293437,-0.0174 0.39309,-0.10303 l 0.119844,-0.10303 0.02136,-1.83394 c 0.01799,-1.54526 0.03144,-1.84608 0.08543,-1.91111 0.155857,-0.18777 0.216556,-0.1921 2.691698,-0.1921 2.498269,0 2.537896,0.003 2.6298,0.20131 0.01946,0.042 0.04754,0.85478 0.0624,1.80623 0.01934,1.23811 0.04243,1.76972 0.08121,1.87001 0.0743,0.19211 0.237818,0.26566 0.590639,0.26566 0.249354,0 0.3073,-0.0145 0.383992,-0.0961 0.08861,-0.0943 0.09057,-0.13089 0.103551,-1.93279 0.01,-1.38327 0.02658,-1.85999 0.06732,-1.93124 0.102415,-0.17912 0.249767,-0.18862 2.710666,-0.17481 l 2.337619,0.0131 0.11841,0.11837 0.1184,0.11838 0.0214,1.83951 0.0213,1.83952 0.11985,0.10303 c 0.1033,0.0888 0.16344,0.10304 0.4358,0.10304 0.33232,0 0.506,-0.0512 0.56323,-0.16596 0.0189,-0.0379 0.044,-0.89977 0.0557,-1.91519 l 0.0214,-1.84622 0.0973,-0.0972 c 0.0938,-0.0937 0.1241,-0.0972 0.84207,-0.0972 0.65803,0 0.75366,0.009 0.82105,0.0763 0.0716,0.0716 0.0763,0.24181 0.0763,2.79083 v 2.71456 l -0.10084,0.0817 c -0.0965,0.0781 -0.19951,0.0816 -2.3749,0.0816 -1.55417,0 -2.31706,-0.015 -2.40988,-0.0473 -0.279133,-0.0973 -0.281286,-0.11288 -0.295493,-2.13626 l -0.01278,-1.82053 -0.09806,-0.0921 c -0.123429,-0.11596 -0.452577,-0.15899 -0.701837,-0.0918 -0.296103,0.0799 -0.294448,0.0681 -0.296685,2.10728 -0.0021,1.9559 -2.7e-4,1.941 -0.257593,2.04625 -0.183156,0.0749 -4.729079,0.0735 -4.906819,-0.001 -0.265112,-0.11191 -0.269956,-0.14916 -0.269956,-2.07549 0,-1.99649 3.99e-4,-1.99379 -0.306442,-2.07655 -0.246205,-0.0664 -0.583529,-0.0239 -0.695131,0.0876 -0.08496,0.0849 -0.08827,0.14376 -0.108977,1.93576 -0.0195,1.68713 -0.02807,1.85844 -0.09834,1.96561 -0.04234,0.0646 -0.128835,0.14034 -0.19221,0.16837 -0.08456,0.0374 -0.729127,0.0511 -2.421756,0.0515 -2.135202,4.9e-4 -2.317986,-0.005 -2.460785,-0.0763 -0.272858,-0.13586 -0.270493,-0.11875 -0.294154,-2.12713 -0.01703,-1.44579 -0.03335,-1.83386 -0.07945,-1.88934 -0.126362,-0.15208 -0.619486,-0.20495 -0.883325,-0.0947 -0.212991,0.089 -0.242292,0.20292 -0.191084,0.74292 0.05025,0.52993 0.05256,1.73846 0.0049,2.5829 -0.03172,0.56236 -0.03867,0.59548 -0.14794,0.70477 l -0.114659,0.11468 -2.418274,0.0117 c -2.158907,0.0105 -2.429475,0.004 -2.522714,-0.0567 -0.216285,-0.14172 -0.225446,-0.22494 -0.225446,-2.04797 0,-1.83227 -0.0083,-1.90569 -0.232419,-2.05253 -0.237948,-0.15591 -0.85329,-0.0462 -0.895263,0.15965 -0.05082,0.24922 -0.06567,2.12273 -0.02226,2.80848 0.04178,0.65994 0.03941,0.7743 -0.01896,0.91399 -0.129777,0.3106 -0.09003,0.30609 -2.696665,0.30609 -2.608252,0 -2.5668,0.005 -2.697205,-0.30738 -0.05889,-0.14093 -0.06117,-0.24213 -0.01838,-0.81344 0.0362,-0.48333 0.03672,-0.92646 0.002,-1.7093 -0.0483,-1.08889 -0.05759,-1.18813 -0.120223,-1.28414 -0.09793,-0.15013 -0.732723,-0.1545 -0.915879,-0.006 -0.09422,0.0762 -0.09458,0.0822 -0.117004,1.90631 -0.01597,1.299 -0.03757,1.86451 -0.07448,1.94936 -0.105425,0.24239 -0.139038,0.24563 -2.627901,0.25291 -2.452375,0.007 -2.517392,0.002 -2.66421,-0.21442 -0.07197,-0.10605 -0.07996,-0.2627 -0.0996,-1.95198 -0.01175,-1.01017 -0.03699,-1.86084 -0.0561,-1.89037 -0.133729,-0.20668 -0.751739,-0.24659 -0.937882,-0.0606 -0.09484,0.0948 -0.09529,0.10243 -0.116567,1.94139 -0.01606,1.38863 -0.0349,1.86994 -0.07601,1.94189 -0.132707,0.23227 -0.124808,0.23158 -2.63185,0.23041 -1.338028,-6.2e-4 -2.358842,-0.018 -2.41954,-0.0412 -0.309133,-0.11816 -0.332496,-0.29075 -0.336884,-2.48866 -0.0035,-1.76153 0.02134,-1.66355 -0.430309,-1.69622 -0.345617,-0.025 -0.542516,0.0179 -0.60801,0.13239 -0.04019,0.0703 -0.05935,0.56974 -0.07527,1.96207 l -0.02136,1.8678 -0.118409,0.11838 -0.11841,0.11837 -2.358972,0.013 c -1.614881,0.009 -2.409418,-0.002 -2.518899,-0.0337 -0.28842,-0.0841 -0.288564,-0.0851 -0.288564,-1.97563 0,-1.65847 -0.0012,-1.68268 -0.09611,-1.86767 -0.05971,-0.11645 -0.152467,-0.21693 -0.244936,-0.26533 -0.259275,-0.13573 -0.72269,-0.0843 -0.792914,0.0881 -0.01546,0.0379 -0.03704,0.90508 -0.04796,1.927 -0.01269,1.18774 -0.03628,1.89169 -0.06538,1.95132 -0.0962,0.19712 -0.163475,0.2022 -2.616301,0.19758 -1.514043,-0.003 -2.348152,-0.0199 -2.423725,-0.0496 -0.06338,-0.0249 -0.149871,-0.0981 -0.192211,-0.16265 -0.07025,-0.10713 -0.07904,-0.28188 -0.100507,-1.99876 -0.01294,-1.03475 -0.02735,-1.88715 -0.03204,-1.89422 -0.03992,-0.0603 -0.35275,-0.13664 -0.560032,-0.13664 -0.208204,0 -0.277368,0.019 -0.375115,0.10302 l -0.119844,0.10302 -0.02378,1.80841 c -0.0265,2.01475 -0.03312,2.06123 -0.310242,2.17821 -0.177799,0.0751 -4.681061,0.0765 -4.864105,0.002 -0.06338,-0.0259 -0.149871,-0.1 -0.192211,-0.16457 -0.07025,-0.10714 -0.07885,-0.27814 -0.09834,-1.95605 -0.01175,-1.01126 -0.03812,-1.86464 -0.05861,-1.8964 -0.09978,-0.15469 -0.493339,-0.21914 -0.806746,-0.1321 -0.297861,0.0827 -0.291018,0.0355 -0.30083,2.07557 -0.0048,1.00669 -0.02547,1.8647 -0.04583,1.90668 -0.02037,0.042 -0.09717,0.10802 -0.170672,0.14675 -0.119237,0.0628 -0.38457,0.0707 -2.461527,0.0729 -2.551308,0.003 -2.548128,0.003 -2.677298,-0.2468 -0.09147,-0.17689 -0.135813,-0.9463 -0.09022,-1.56549 0.01989,-0.27017 0.03084,-0.89379 0.02433,-1.38583 l -0.01184,-0.89463 -0.14924,-0.0871 c -0.208132,-0.12151 -0.635472,-0.12318 -0.770395,-0.003 -0.205322,0.18286 -0.212256,0.24936 -0.21251,2.03819 -1.46e-4,1.03085 -0.01739,1.73962 -0.0447,1.83799 -0.07608,0.27394 -0.08506,0.27535 -1.898523,0.29756 -0.892711,0.0109 -1.983029,0.009 -2.422929,-0.005 z m 82.095718,-0.0436 c -0.61937,-0.0865 -0.94543,-0.37709 -1.08152,-0.96392 -0.0511,-0.22028 -0.0643,-0.60364 -0.0645,-1.86852 -1.3e-4,-0.92744 0.0183,-1.68897 0.0443,-1.82529 0.0826,-0.43399 0.29728,-0.74195 0.62427,-0.89565 0.42162,-0.19819 1.44918,-0.19794 1.87123,4.5e-4 0.24714,0.11617 0.47085,0.37289 0.56073,0.64347 0.0675,0.20316 0.1442,0.82106 0.14649,1.17974 l 10e-4,0.18153 h -0.61935 -0.61935 v -0.46347 c 0,-0.52844 -0.0495,-0.72098 -0.20023,-0.77827 -0.23072,-0.0877 -0.48395,-0.0162 -0.5639,0.15927 -0.068,0.14923 -0.0659,3.42994 0.002,3.57959 0.0642,0.14085 0.31832,0.2231 0.51521,0.16673 0.22264,-0.0637 0.26165,-0.19884 0.25399,-0.87964 l -0.007,-0.58823 h 0.62535 0.62534 l -0.0295,0.55866 c -0.0162,0.30727 -0.048,0.656 -0.0705,0.77495 -0.0904,0.47688 -0.36503,0.81365 -0.77007,0.94446 -0.25776,0.0832 -0.90399,0.12173 -1.24486,0.0741 z m 11.6018,-0.002 c -0.62455,-0.0882 -0.96378,-0.41346 -1.09429,-1.04931 -0.0728,-0.3547 -0.0733,-3.23331 -5.7e-4,-3.5836 0.0958,-0.46181 0.30375,-0.76308 0.63367,-0.91816 0.42162,-0.19819 1.44918,-0.19794 1.87124,4.5e-4 0.24265,0.11406 0.4673,0.36826 0.5587,0.63221 0.0596,0.17214 0.14692,0.90773 0.14898,1.25507 l 6.9e-4,0.11746 h -0.61935 -0.61934 v -0.46347 c 0,-0.52844 -0.0495,-0.72098 -0.20023,-0.77827 -0.23073,-0.0877 -0.48396,-0.0162 -0.5639,0.15927 -0.068,0.14923 -0.0659,3.42994 0.002,3.57959 0.0642,0.14085 0.31833,0.2231 0.51521,0.16673 0.22265,-0.0637 0.26165,-0.19884 0.25399,-0.87964 l -0.007,-0.58823 h 0.62444 0.62443 l -0.0306,0.56595 c -0.0169,0.31127 -0.0482,0.66 -0.0696,0.77495 -0.0873,0.46811 -0.36498,0.80701 -0.76801,0.93717 -0.2635,0.0851 -0.90737,0.12178 -1.26112,0.0718 z m 26.05522,0 c -0.62456,-0.0882 -0.96378,-0.41346 -1.09429,-1.04931 -0.0728,-0.3547 -0.0733,-3.23331 -5.7e-4,-3.5836 0.0958,-0.46181 0.30375,-0.76308 0.63367,-0.91816 0.42162,-0.19819 1.44918,-0.19794 1.87124,4.5e-4 0.24265,0.11406 0.4673,0.36826 0.5587,0.63221 0.0596,0.17214 0.14692,0.90773 0.14897,1.25507 l 7e-4,0.11746 h -0.61935 -0.61934 v -0.46347 c 0,-0.52844 -0.0495,-0.72098 -0.20023,-0.77827 -0.23073,-0.0877 -0.48396,-0.0162 -0.5639,0.15927 -0.068,0.14923 -0.0659,3.42994 0.002,3.57959 0.0642,0.14085 0.31833,0.2231 0.51521,0.16673 0.22264,-0.0637 0.26165,-0.19884 0.25399,-0.87964 l -0.007,-0.58823 h 0.62443 0.62444 l -0.0306,0.56595 c -0.0169,0.31127 -0.0482,0.66 -0.0696,0.77495 -0.0873,0.46811 -0.36498,0.80701 -0.76801,0.93717 -0.2635,0.0851 -0.90737,0.12178 -1.26112,0.0718 z m 4.52755,0.002 c -0.66062,-0.10529 -0.95398,-0.35588 -1.11705,-0.9542 -0.0622,-0.22825 -0.0726,-0.49657 -0.073,-1.88915 -4.6e-4,-1.4002 0.01,-1.65965 0.0725,-1.88914 0.17769,-0.64725 0.5175,-0.89777 1.31397,-0.96873 0.36199,-0.0323 0.93563,0.0353 1.16433,0.13713 0.61871,0.27543 0.7432,0.82546 0.70279,3.10516 -0.0246,1.38658 -0.0533,1.59487 -0.26944,1.95267 -0.21001,0.34769 -0.53198,0.48926 -1.18634,0.52166 -0.21449,0.0106 -0.48797,0.004 -0.60773,-0.0154 z m 0.65892,-0.90373 c 0.10148,-0.0354 0.144,-0.0841 0.17699,-0.20289 0.0589,-0.2119 0.0578,-3.22254 -0.001,-3.43499 -0.0593,-0.21368 -0.20399,-0.30586 -0.43195,-0.27528 -0.0969,0.013 -0.21665,0.0641 -0.26606,0.11347 -0.0884,0.0884 -0.0898,0.11787 -0.0898,1.85677 0,1.66077 0.005,1.7722 0.0792,1.85447 0.11567,0.1278 0.32177,0.16202 0.53282,0.0884 z m 17.31369,0.89971 c -0.70373,-0.0967 -0.95083,-0.42915 -1.01536,-1.36609 l -0.0294,-0.42676 h 0.54002 0.54003 l 2.4e-4,0.20289 c 3.9e-4,0.33799 0.0707,0.51771 0.23271,0.59497 0.35521,0.16939 0.61396,-0.13574 0.49373,-0.58224 -0.0415,-0.15398 -0.16748,-0.29979 -0.8088,-0.93582 -0.84346,-0.83649 -0.94523,-0.98867 -1.03105,-1.54178 -0.0904,-0.58281 0.0788,-1.10948 0.44056,-1.37158 0.26589,-0.19261 0.58051,-0.26932 1.09974,-0.26814 0.53126,0.001 0.84768,0.0814 1.07976,0.27372 0.26422,0.21892 0.34378,0.42118 0.36436,0.92635 l 0.0178,0.43782 h -0.56012 -0.56012 v -0.1902 c 0,-0.24794 -0.0682,-0.39028 -0.21629,-0.45163 -0.29799,-0.12343 -0.55689,0.11527 -0.46657,0.43018 0.0669,0.23341 0.22804,0.42484 0.8737,1.03815 0.7287,0.69218 0.88617,0.94501 0.96646,1.55168 0.11426,0.86343 -0.15842,1.42631 -0.78186,1.61394 -0.25622,0.0771 -0.8512,0.10967 -1.17958,0.0645 z m 8.29617,0.004 c -0.66062,-0.10529 -0.95398,-0.35588 -1.11704,-0.9542 -0.0622,-0.22825 -0.0726,-0.49657 -0.073,-1.88915 -4.6e-4,-1.4002 0.01,-1.65965 0.0725,-1.88914 0.17769,-0.64725 0.51749,-0.89777 1.31397,-0.96873 0.36198,-0.0323 0.93562,0.0353 1.16433,0.13713 0.61871,0.27543 0.7432,0.82546 0.70278,3.10516 -0.0246,1.38658 -0.0533,1.59487 -0.26944,1.95267 -0.21001,0.34769 -0.53197,0.48926 -1.18634,0.52166 -0.21449,0.0106 -0.48796,0.004 -0.60773,-0.0154 z m 0.65893,-0.90373 c 0.10147,-0.0354 0.144,-0.0841 0.17699,-0.20289 0.0589,-0.2119 0.0578,-3.22254 -0.001,-3.43499 -0.0593,-0.21368 -0.20399,-0.30586 -0.43195,-0.27528 -0.0969,0.013 -0.21664,0.0641 -0.26605,0.11347 -0.0884,0.0884 -0.0898,0.11787 -0.0898,1.85677 0,1.66077 0.005,1.7722 0.0792,1.85447 0.11566,0.1278 0.32177,0.16202 0.53282,0.0884 z m -65.72872,-1.93962 v -2.79773 h 0.59799 0.59799 v 1.13191 1.1319 h 0.44849 0.44849 v -1.1319 -1.13191 h 0.59799 0.59799 v 2.79773 2.79773 h -0.59799 -0.59799 v -1.15326 -1.15326 h -0.44849 -0.44849 v 1.15326 1.15326 h -0.59799 -0.59799 z m 4.61305,0 v -2.79773 h 0.59799 0.59799 v 2.79773 2.79773 h -0.59799 -0.59799 z m 7.00501,0 v -2.79773 h 0.59799 0.59799 v 1.13191 1.1319 h 0.44849 0.44849 v -1.1319 -1.13191 h 0.59799 0.59799 v 2.79773 2.79773 h -0.59799 -0.59799 v -1.15326 -1.15326 h -0.44849 -0.44849 v 1.15326 1.15326 h -0.59799 -0.59799 z m 4.61306,0 v -2.79773 h 1.23869 1.23869 v 0.53392 0.53392 h -0.6407 -0.6407 v 0.59798 0.59799 h 0.59799 0.59798 v 0.44849 0.4485 h -0.59798 -0.59799 v 0.68341 0.68342 h 0.66206 0.66205 v 0.53392 0.53391 h -1.26004 -1.26005 z m 3.71607,-0.007 v -2.80441 l 1.07852,0.0263 c 0.75864,0.0185 1.15135,0.0456 1.3241,0.0916 0.62978,0.16748 0.88804,0.54419 0.89302,1.30255 0.004,0.67603 -0.15595,0.993 -0.60386,1.19343 -0.15763,0.0705 -0.17646,0.0902 -0.10678,0.11153 0.39011,0.11935 0.59148,0.38033 0.65942,0.85461 0.0236,0.16445 0.0432,0.68823 0.0437,1.16395 l 8.5e-4,0.86494 h -0.61664 -0.61664 l -0.0134,-1.05715 c -0.017,-1.34028 -0.031,-1.37653 -0.55798,-1.44218 l -0.24561,-0.0306 v 1.26497 1.26496 h -0.61934 -0.61935 z m 1.68718,-0.5687 c 0.10215,-0.0236 0.21809,-0.0921 0.28832,-0.17051 0.10615,-0.11846 0.11746,-0.16208 0.11746,-0.45288 0,-0.34528 -0.067,-0.53809 -0.21424,-0.61691 -0.0469,-0.0251 -0.21006,-0.0573 -0.36263,-0.0715 l -0.2774,-0.0259 v 0.68959 0.68959 l 0.13882,-10e-4 c 0.0763,-5.6e-4 0.2157,-0.0188 0.30967,-0.0404 z m 2.79774,0.57538 v -2.79773 h 0.61934 0.61935 v 2.79773 2.79773 h -0.61935 -0.61934 z m 2.32695,2.63756 c 0.0154,-0.0881 0.28165,-1.34227 0.59176,-2.78706 l 0.56382,-2.62687 0.57829,-0.0118 0.57828,-0.0118 0.58605,2.76685 c 0.32233,1.52176 0.58556,2.78126 0.58496,2.79888 -5.9e-4,0.0176 -0.25793,0.032 -0.57185,0.032 h -0.57077 l -0.051,-0.33103 c -0.0281,-0.18206 -0.0617,-0.39349 -0.0747,-0.46984 l -0.0237,-0.13882 h -0.45924 -0.45923 l -0.051,0.33103 c -0.0281,0.18206 -0.0617,0.3935 -0.0747,0.46985 l -0.0237,0.13881 h -0.57563 -0.57563 z m 2.05614,-1.70854 c -0.0128,-0.0646 -0.0851,-0.50702 -0.16069,-0.98315 -0.0756,-0.47613 -0.15131,-0.85094 -0.16816,-0.83291 -0.0169,0.018 -0.0916,0.41719 -0.16615,0.88704 -0.0745,0.46985 -0.1458,0.89752 -0.15839,0.95038 -0.0223,0.0937 -0.0142,0.0961 0.32684,0.0961 h 0.34973 z m 13.343,-0.92902 v -2.79773 h 0.54929 0.54929 l 0.5033,1.37624 c 0.27682,0.75694 0.53419,1.44409 0.57194,1.52701 0.0648,0.14232 0.0693,0.0653 0.0798,-1.37624 l 0.0112,-1.52701 h 0.57609 0.5761 v 2.79905 2.79904 l -0.52107,-0.012 -0.52107,-0.012 -0.56133,-1.36197 c -0.30874,-0.74908 -0.58249,-1.39299 -0.60833,-1.4309 -0.0346,-0.0508 -0.0477,0.3101 -0.0495,1.37264 l -0.003,1.44158 h -0.57663 -0.57663 z m 6.49245,0 v -2.79773 h 0.59798 0.59799 v 1.13191 1.1319 h 0.46985 0.46985 v -1.1319 -1.13191 h 0.59799 0.59799 v 2.79773 2.79773 h -0.59799 -0.59799 v -1.15326 -1.15326 h -0.46985 -0.46985 v 1.15326 1.15326 h -0.59799 -0.59798 z m 4.61305,0 v -2.79773 h 0.59799 0.59799 v 2.79773 2.79773 h -0.59799 -0.59799 z m 7.43215,0.53392 v -2.26381 h -0.42714 -0.42713 v -0.53392 -0.53392 h 1.47361 1.47362 v 0.53392 0.53392 h -0.4485 -0.44849 v 2.26381 2.26381 h -0.59799 -0.59798 z m 7.7294,1.0358 c -9.5e-4,-0.6754 -0.006,-1.93727 -0.0107,-2.80415 l -0.009,-1.57614 1.06783,0.026 c 0.74965,0.0182 1.14102,0.0455 1.31342,0.0913 0.62979,0.16748 0.88805,0.54419 0.89303,1.30255 0.004,0.67603 -0.15595,0.993 -0.60386,1.19343 -0.15764,0.0705 -0.17646,0.0902 -0.10678,0.11153 0.3901,0.11935 0.59147,0.38033 0.65942,0.85461 0.0236,0.16445 0.0432,0.68823 0.0437,1.16395 l 8.5e-4,0.86494 h -0.61664 -0.61664 l -0.0134,-1.05715 c -0.017,-1.34028 -0.031,-1.37653 -0.55799,-1.44218 l -0.2456,-0.0306 v 1.26497 1.26496 h -0.59799 -0.59799 z m 1.78252,-2.18201 c 0.20289,-0.10859 0.26946,-0.25472 0.26946,-0.59157 0,-0.34002 -0.0677,-0.5334 -0.21424,-0.61182 -0.0469,-0.0251 -0.21006,-0.0573 -0.36263,-0.0715 l -0.2774,-0.0259 v 0.69381 0.6938 l 0.24641,-0.0188 c 0.13552,-0.0103 0.2878,-0.0409 0.3384,-0.068 z m 2.66142,0.61229 v -2.79773 h 0.61934 0.61935 v 2.79773 2.79773 h -0.61935 -0.61934 z m 2.32695,2.63756 c 0.0154,-0.0881 0.28165,-1.34227 0.59175,-2.78706 l 0.56383,-2.62687 0.57828,-0.0118 0.57829,-0.0118 0.58605,2.76685 c 0.32232,1.52176 0.58556,2.78126 0.58496,2.79888 -5.9e-4,0.0176 -0.25793,0.032 -0.57185,0.032 h -0.57078 l -0.051,-0.33103 c -0.0281,-0.18206 -0.0617,-0.39349 -0.0747,-0.46984 l -0.0237,-0.13882 h -0.45924 -0.45923 l -0.051,0.33103 c -0.0281,0.18206 -0.0617,0.3935 -0.0747,0.46985 l -0.0237,0.13881 h -0.57563 -0.57564 z m 2.05614,-1.70854 c -0.0128,-0.0646 -0.0851,-0.50702 -0.1607,-0.98315 -0.0756,-0.47613 -0.1513,-0.85094 -0.16815,-0.83291 -0.0169,0.018 -0.0916,0.41719 -0.16615,0.88704 -0.0745,0.46985 -0.1458,0.89752 -0.15839,0.95038 -0.0223,0.0937 -0.0142,0.0961 0.32684,0.0961 h 0.34973 z m -58.03122,-9.58364 c -1.96161,-1.43434 -3.5906,-2.61787 -3.61996,-2.63007 -0.0425,-0.0176 -0.0534,-1.69854 -0.0534,-8.20255 v -8.18039 l -0.9235,-2.11895 c -0.50793,-1.16543 -0.93285,-2.1433 -0.94427,-2.17306 -0.0166,-0.0434 0.66936,-0.0541 3.46486,-0.0541 h 3.48562 l 0.0108,9.08565 0.0108,9.08566 0.61935,0.4402 c 0.34064,0.24211 0.82578,0.5856 1.07808,0.76332 l 0.45874,0.32312 0.27026,-0.18505 c 0.14864,-0.10178 0.63824,-0.44453 1.08801,-0.76168 l 0.81775,-0.57663 0.002,-9.0873 0.002,-9.08729 h 2.56281 2.56281 v 10.32652 10.32652 l -3.61992,2.64244 c -1.99096,1.45334 -3.63916,2.64899 -3.66268,2.657 -0.0235,0.008 -1.64772,-1.159 -3.60934,-2.59335 z m 32.37682,0 c -1.96162,-1.43434 -3.59061,-2.61787 -3.61997,-2.63007 -0.0425,-0.0176 -0.0534,-1.69854 -0.0534,-8.20255 v -8.18039 l -0.92351,-2.11895 c -0.50792,-1.16543 -0.93284,-2.1433 -0.94426,-2.17306 -0.0167,-0.0434 0.66935,-0.0541 3.46485,-0.0541 h 3.48562 l 0.0108,9.08565 0.0108,9.08566 0.61934,0.4402 c 0.34064,0.24211 0.82578,0.5856 1.07808,0.76332 l 0.45874,0.32312 0.27026,-0.18505 c 0.14864,-0.10178 0.63825,-0.44453 1.08801,-0.76168 l 0.81775,-0.57663 0.002,-9.0873 0.002,-9.08729 h 2.56281 2.56281 v 10.32652 10.32652 l -3.61992,2.64244 c -1.99095,1.45334 -3.63916,2.64899 -3.66268,2.657 -0.0235,0.008 -1.64772,-1.159 -3.60933,-2.59335 z m -47.07025,2.2201 c -1.6347,-0.11226 -2.89575,-0.62314 -3.9115,-1.58464 -1.00328,-0.94969 -1.55884,-2.14266 -1.68585,-3.62007 -0.0313,-0.36379 -0.0414,-2.96541 -0.0318,-8.15846 0.0133,-7.20279 0.0184,-7.64679 0.0929,-8.03014 0.23436,-1.2066 0.74729,-2.17667 1.57055,-2.9703 0.82023,-0.79071 1.8922,-1.32588 3.06876,-1.53204 1.29615,-0.22712 4.02139,-0.18511 5.10729,0.0787 1.94649,0.47296 3.40221,1.78904 4.01133,3.62656 0.31761,0.95811 0.2997,0.40627 0.2997,9.23295 0,8.8282 0.0209,8.19338 -0.3014,9.15663 -0.64024,1.91351 -2.27584,3.28988 -4.36868,3.67626 -0.87029,0.16067 -2.53908,0.21462 -3.85126,0.12451 z m 1.74275,-3.31483 c 0.0634,-0.13995 0.0724,-0.32738 0.0709,-1.48429 -0.002,-1.29369 -0.0446,-1.87872 -0.15294,-2.08114 -0.0623,-0.11646 -0.0978,-0.0553 -0.1663,0.28717 -0.0739,0.36926 -0.10783,2.60913 -0.0456,3.00895 0.0717,0.46033 0.16756,0.54821 0.29392,0.26931 z m 0.59641,-1.35295 c 0.29993,-0.0798 0.57864,-0.24789 0.86827,-0.52351 0.25729,-0.24484 0.42035,-0.50847 0.55303,-0.8941 0.13356,-0.38821 0.11008,-0.4061 -0.17836,-0.13586 -0.16389,0.15355 -0.416,0.3248 -0.67274,0.45697 -0.22584,0.11627 -0.47193,0.27527 -0.54685,0.35335 -0.23916,0.24922 -0.44772,0.8049 -0.30159,0.80351 0.0294,-2.8e-4 0.15457,-0.0274 0.27824,-0.0604 z m -1.12068,-1.12263 c -0.052,-0.27736 -0.26505,-0.68487 -0.47575,-0.91013 -0.16277,-0.17401 -0.31882,-0.27417 -0.76987,-0.49413 -0.47867,-0.23343 -0.61869,-0.32572 -0.90999,-0.59975 -0.30486,-0.28679 -0.34428,-0.31195 -0.34428,-0.2197 0,0.12859 0.14992,0.59244 0.26592,0.82276 0.14918,0.29619 0.44905,0.68782 0.66141,0.86381 0.37233,0.30854 0.89315,0.55308 1.38241,0.64907 0.10395,0.0204 0.19595,0.0392 0.20443,0.0418 0.008,0.003 0.002,-0.0666 -0.0143,-0.1537 z m 0.0566,-1.46554 c 0.27264,-0.12371 0.51296,-0.32947 0.58434,-0.5003 0.0345,-0.0825 0.0627,-0.25388 0.0627,-0.38081 0,-0.75002 -0.7388,-1.70163 -2.26797,-2.92122 l -0.44433,-0.35438 -0.0145,0.12413 c -0.0223,0.19065 0.0738,1.04504 0.18697,1.66279 0.23911,1.30519 0.6117,2.12184 1.08127,2.36993 0.20837,0.11009 0.56877,0.11002 0.81154,-1.4e-4 z m 1.28841,-0.60476 c 0.75872,-0.73621 1.24879,-1.61695 1.39486,-2.50686 0.0748,-0.45535 0.05,-1.07352 -0.043,-1.07348 -0.0724,4e-5 -0.47352,0.15687 -0.71795,0.28074 -0.26784,0.13572 -0.90467,0.58138 -1.11836,0.78264 -0.0899,0.0847 -0.24543,0.27065 -0.34564,0.41329 l -0.18218,0.25935 0.18544,0.23186 c 0.41793,0.52251 0.61248,1.08489 0.5285,1.52771 -0.0232,0.12252 -0.0619,0.25943 -0.0858,0.30423 -0.11226,0.20977 0.0193,0.13462 0.38422,-0.21948 z m -0.83612,-2.70874 0.33595,-0.36708 -0.0699,-0.22023 c -0.23343,-0.73547 -1.04367,-1.59355 -2.2635,-2.39715 -0.3874,-0.25521 -0.5167,-0.32097 -0.55527,-0.28238 -0.0577,0.0578 -0.0686,1.23957 -0.015,1.62638 l 0.0326,0.23492 0.32766,0.21357 c 0.38156,0.2487 0.97208,0.73681 1.4728,1.21739 0.19403,0.18623 0.36312,0.33929 0.37575,0.34013 0.0126,8.4e-4 0.17415,-0.16366 0.35893,-0.36555 z m 1.19052,-0.86531 c 0.2514,-0.13749 0.57242,-0.29578 0.71338,-0.35177 0.14096,-0.056 0.26489,-0.13091 0.2754,-0.16648 0.17813,-0.60286 0.30654,-1.96544 0.18522,-1.96544 -0.15023,0 -0.96495,0.45092 -1.40896,0.77981 -0.41699,0.30888 -0.71479,0.61016 -0.86152,0.87161 -0.0153,0.0273 0.0655,0.2003 0.17967,0.38442 0.11414,0.18412 0.24918,0.41645 0.30007,0.51629 0.0509,0.0998 0.10764,0.18153 0.1261,0.18153 0.0185,0 0.23925,-0.11248 0.49064,-0.24997 z m -1.00212,-1.42441 0.22828,-0.24348 -0.0913,-0.2742 c -0.21026,-0.63184 -0.65305,-1.35394 -1.12476,-1.83423 -0.38382,-0.39082 -0.75435,-0.63348 -1.30809,-0.85666 l -0.48682,-0.19621 0.0272,0.77765 c 0.015,0.42771 0.0384,0.82632 0.0522,0.8858 0.0138,0.0595 0.095,0.15559 0.18057,0.21357 0.64496,0.43712 1.94815,1.46311 2.16282,1.70278 0.0453,0.0506 0.0934,0.0866 0.10694,0.0802 0.0135,-0.006 0.12736,-0.12128 0.25291,-0.2552 z m 0.93367,-0.87129 c 0.27696,-0.15502 0.60768,-0.32375 0.73494,-0.37495 0.22847,-0.0919 0.23264,-0.0968 0.33212,-0.39088 0.16972,-0.50165 0.27944,-1.11814 0.2589,-1.4547 -0.0241,-0.39507 -0.0328,-0.40643 -0.26007,-0.33804 -0.86763,0.26112 -1.80284,0.89612 -2.06423,1.40159 -0.0624,0.12071 -0.0575,0.14139 0.1276,0.53659 0.10589,0.22608 0.22434,0.52157 0.26321,0.65665 0.0389,0.13508 0.0782,0.2456 0.0873,0.2456 0.009,0 0.24325,-0.12684 0.52021,-0.28186 z m -1.22122,-1.56437 c 0.028,-0.0522 0.14784,-0.19755 0.2664,-0.32291 l 0.21558,-0.22794 -0.24616,-0.47522 c -0.46021,-0.88845 -0.92392,-1.46627 -1.57361,-1.96084 -0.32125,-0.24455 -0.90896,-0.55739 -1.15774,-0.61627 l -0.11982,-0.0284 0.0266,0.54982 c 0.0331,0.68455 0.0942,1.29676 0.15247,1.52835 0.0434,0.17216 0.0571,0.18301 0.51275,0.40567 0.59161,0.28907 1.16558,0.66618 1.50499,0.98881 0.14518,0.13799 0.2873,0.25156 0.31584,0.25238 0.0285,8.2e-4 0.0748,-0.0412 0.10272,-0.0935 z m 1.22248,-0.99001 c 0.25278,-0.1269 0.58871,-0.27558 0.74652,-0.33041 0.32234,-0.11198 0.3038,-0.0771 0.41923,-0.78828 0.0988,-0.60889 0.0422,-1.51239 -0.0948,-1.51239 -0.0986,0 -0.77649,0.40046 -1.1351,0.67057 -0.47104,0.35479 -0.75702,0.6248 -0.90708,0.85642 l -0.1176,0.18152 0.28301,0.57387 c 0.15565,0.31562 0.29723,0.57511 0.31462,0.57664 0.0174,0.002 0.23843,-0.10105 0.4912,-0.22794 z m -0.82181,-1.7878 c 0.17573,-0.0864 0.36356,-0.30983 0.43682,-0.51971 0.0559,-0.16016 0.0747,-0.33953 0.0721,-0.68664 -0.004,-0.5034 -0.0732,-0.91345 -0.28162,-1.66582 -0.16998,-0.61357 -0.64405,-1.90075 -0.70004,-1.90075 -0.0385,0 -0.20963,0.41596 -0.4182,1.01628 -0.78807,2.26825 -0.69463,3.65093 0.25732,3.80767 0.22527,0.0371 0.49923,0.015 0.63365,-0.051 z m -93.094017,5.00846 V 167.0545 h 2.541452 2.541451 v 10.59294 10.59295 l 0.160176,-0.004 c 0.0881,-0.002 0.60226,-0.0356 1.142585,-0.0747 l 0.98241,-0.0711 v -2.71082 -2.71082 l 1.986177,-0.15365 c 1.092397,-0.0845 1.993919,-0.14791 2.003382,-0.14089 0.0199,0.0147 0.598212,9.1489 0.60057,9.48564 l 0.0016,0.22425 h -5.979887 -5.979886 z m 13.027609,8.80202 v -3.71302 l -0.937129,-2.1494 -0.93713,-2.1494 0.93713,-0.0115 0.937129,-0.0115 1.72e-4,-4.06764 c 1.45e-4,-3.4312 0.01032,-4.13113 0.06506,-4.47342 0.291548,-1.82331 1.421945,-3.32531 3.099833,-4.11888 0.851076,-0.40252 1.677555,-0.56364 3.110348,-0.60635 l 0.990016,-0.0242 -0.002,4.20909 -0.09818,0.003 c -0.05286,0.0108 -0.222579,0.0305 -0.377157,0.044 -1.095829,0.0953 -1.517123,0.5342 -1.66147,1.73097 -0.0264,0.21892 -0.04366,1.73377 -0.04366,3.83353 v 3.47159 h 1.089193 1.089194 l 0.102314,3.96437 -0.219776,-0.0134 c -0.0646,-0.0106 -0.492273,-0.0395 -0.950375,-0.0643 -0.458102,-0.0248 -0.895381,-0.055 -0.971731,-0.0671 l -0.138819,-0.022 v 3.97429 3.97429 H 43.149712 40.60826 Z m 9.439678,-0.10582 v -3.81885 l -0.202889,-0.0243 c -0.111589,-0.0134 -0.592116,-0.0472 -1.067837,-0.0752 l -0.864948,-0.051 -0.105237,-3.95802 h 1.173074 1.067837 v -4.52305 c 0,-4.08504 -0.0065,-4.52557 -0.06756,-4.54899 -0.03716,-0.0143 -0.517748,-0.0341 -1.067836,-0.0259 l -1.055284,0.0157 c -0.07667,-1.3527 0.03249,-2.81192 -0.01221,-4.21004 l 3.697881,0.009 h 3.630645 v 12.51505 12.51505 H 52.610688 50.04788 Z m 20.788732,3.77236 c -1.128931,-0.0932 -2.10363,-0.41285 -2.941288,-0.9647 -1.421606,-0.93656 -2.275479,-2.40888 -2.42882,-4.18797 -0.03274,-0.37983 -0.04214,-2.72143 -0.03091,-7.70031 0.01794,-7.9554 -0.0034,-7.38068 0.309073,-8.3151 0.276773,-0.8276 0.68245,-1.48866 1.280628,-2.08679 1.01844,-1.01836 2.279586,-1.5602 3.923259,-1.68559 0.318234,-0.0243 2.234406,-0.043 4.409081,-0.043 l 3.846237,-1.1e-4 -0.01624,0.26696 c -0.217736,3.57995 -0.595384,9.43116 -0.609561,9.44442 -0.01042,0.01 -0.8839,-0.0467 -1.941059,-0.12535 -1.057158,-0.0787 -1.965354,-0.14382 -2.018212,-0.14472 l -0.0961,-0.002 v -2.56281 -2.56281 l -0.544597,1.8e-4 c -0.299528,9e-5 -0.813691,0.0203 -1.142585,0.045 -1.221386,0.0915 -1.74023,0.28506 -2.013207,0.75086 -0.257368,0.43917 -0.245094,0.12952 -0.262203,6.61476 -0.01663,6.30375 -0.01176,6.4956 0.184496,7.27213 0.212218,0.83967 0.566087,1.25992 1.290514,1.53259 0.441463,0.16617 0.840925,0.23582 1.494494,0.2606 l 0.608667,0.0231 v -2.04096 -2.04096 l -0.608667,0.0284 -0.608667,0.0284 -0.739744,-1.69224 c -0.406859,-0.93073 -0.733617,-1.69738 -0.726129,-1.70366 0.0075,-0.006 1.757926,-0.0222 3.889863,-0.0353 l 3.876247,-0.0239 v 5.84852 5.84853 l -3.983031,-0.006 c -2.190667,-0.003 -4.17136,-0.0215 -4.401539,-0.0405 z m 11.032806,-3.68063 v -3.74082 l -0.935212,-2.12845 -0.935211,-2.12846 0.935211,-0.0115 0.935212,-0.0115 v -6.64113 -6.64113 h 6.471091 6.471091 v 2.16148 2.16148 l -0.331029,-0.0271 c -0.27276,-0.0224 -7.392972,-0.45123 -7.496215,-0.45152 -0.01762,-5e-5 -0.03204,2.12383 -0.03204,4.71974 v 4.71984 h 3.929639 3.92964 v 2.13568 2.13567 h -0.122424 c -0.06733,0 -1.56177,-0.0859 -3.320972,-0.19098 -1.759202,-0.10503 -3.409981,-0.20194 -3.668397,-0.21535 -0.258417,-0.0134 -0.532317,-0.034 -0.608667,-0.0459 l -0.138819,-0.0215 v 2.0548 2.0548 l 0.181532,-0.0226 c 0.09984,-0.0125 0.383354,-0.0335 0.630024,-0.0468 0.24667,-0.0133 1.87678,-0.10997 3.622465,-0.21489 1.745686,-0.10493 3.230513,-0.19077 3.299616,-0.19077 H 94.8116 v 2.13567 2.13568 h -5.374969 c -2.956233,0 -5.868224,0.0127 -6.471091,0.0282 l -1.096122,0.0282 z m 15.120569,-8.79877 v -12.52589 l 2.466703,0.0145 c 1.80059,0.0106 2.48031,0.028 2.51709,0.0642 0.0277,0.0273 0.87899,1.14529 1.89173,2.48436 1.01274,1.33906 1.85982,2.44107 1.8824,2.4489 0.026,0.009 0.041,-0.90584 0.041,-2.48806 v -2.5023 h 2.54145 2.54146 v 12.51505 12.51505 h -2.54146 -2.54145 v -6.31325 -6.31324 l -1.86871,-2.47505 -1.86872,-2.47506 -0.0108,8.7883 -0.0108,8.7883 h -2.51999 -2.519993 z m 49.803913,8.79734 v -3.74225 l -0.93713,-2.12703 -0.93713,-2.12702 0.93713,-0.0115 0.93713,-0.0115 v -6.64113 -6.64113 h 6.47109 6.47109 v 2.16148 2.16148 l -0.33103,-0.0271 c -0.27276,-0.0224 -7.39297,-0.45123 -7.49621,-0.45152 -0.0176,-5e-5 -0.032,2.12383 -0.032,4.71974 v 4.71984 h 3.92964 3.92964 v 2.13568 2.13567 h -0.12242 c -0.0673,0 -1.56178,-0.0859 -3.32098,-0.19098 -1.7592,-0.10503 -3.40998,-0.20194 -3.66839,-0.21535 -0.25842,-0.0134 -0.53232,-0.034 -0.60867,-0.0459 l -0.13882,-0.0215 v 2.0548 2.0548 l 0.18153,-0.0226 c 0.0998,-0.0125 0.38336,-0.0335 0.63003,-0.0468 0.24667,-0.0133 1.87678,-0.10997 3.62246,-0.21489 1.74569,-0.10493 3.23051,-0.19077 3.29962,-0.19077 h 0.12564 v 2.13567 2.13568 h -5.37497 c -2.95623,0 -5.86822,0.0127 -6.47109,0.0282 l -1.09612,0.0282 z m 32.37681,0.0155 v -3.71302 l -0.93713,-2.1494 -0.93713,-2.1494 0.93713,-0.0115 0.93713,-0.0115 1.7e-4,-4.06764 c 1.5e-4,-3.4312 0.0103,-4.13113 0.0651,-4.47342 0.29154,-1.82331 1.42194,-3.32531 3.09983,-4.11888 0.46399,-0.21945 0.97466,-0.37587 1.64021,-0.50242 0.45448,-0.0864 0.62168,-0.0899 5.11493,-0.10778 l 4.64509,-0.0184 v 12.51821 12.51821 h -2.5628 -2.56281 v -3.81978 -3.81979 l -0.22425,-0.0242 c -0.12333,-0.0133 -1.02192,-0.0721 -1.99685,-0.13053 -0.97494,-0.0585 -1.8543,-0.11585 -1.95414,-0.12753 l -0.18154,-0.0212 v 3.97153 3.97154 h -2.54145 -2.54145 z m 9.43968,-12.55999 v -4.52682 l -0.10978,-0.0275 c -0.21493,-0.0539 -2.54067,0.0162 -2.87911,0.0868 -0.60496,0.12625 -0.89201,0.32982 -1.09855,0.77907 -0.24394,0.53061 -0.24145,0.48706 -0.25802,4.50989 l -0.0153,3.70539 h 2.18036 2.18036 z"
         id="path1" /></g></g></svg>
